<?xml version="1.0" encoding="utf-8"?>
<!-- Generator: Adobe Illustrator 24.2.3, SVG Export Plug-In . SVG Version: 6.00 Build 0)  -->
<svg version="1.1" id="圖層_1" xmlns="http://www.w3.org/2000/svg" xmlns:xlink="http://www.w3.org/1999/xlink" x="0px" y="0px"
	 viewBox="0 0 28.4 28.4" style="enable-background:new 0 0 28.4 28.4;" xml:space="preserve">
<g>
	<path d="M13.6,17.4c0.2,0.1,0.4,0.2,0.6,0.2c0.2,0,0.4-0.1,0.6-0.2c0.2-0.2,5.1-4.6,5.1-9.1c0-3.1-2.6-5.7-5.7-5.7
		c-3.1,0-5.7,2.6-5.7,5.7C8.5,12.9,13.4,17.3,13.6,17.4z M14.2,6.9c0.8,0,1.5,0.7,1.5,1.5c0,0.8-0.7,1.5-1.5,1.5
		c-0.8,0-1.5-0.7-1.5-1.5C12.7,7.5,13.4,6.9,14.2,6.9z"/>
	<path d="M25.1,17.4l-0.7-2.3c-0.1-0.4-0.5-0.6-0.8-0.6h-4.7c-0.2,0.3-0.4,0.5-0.5,0.8c-1.3,1.8-2.7,3-2.8,3.1
		c-0.4,0.3-0.9,0.5-1.4,0.5c-0.5,0-1-0.2-1.4-0.5c-0.1-0.1-1.5-1.3-2.8-3.1c-0.2-0.3-0.4-0.5-0.5-0.8H4.7c-0.4,0-0.7,0.3-0.8,0.6
		l-0.8,2.8l17.6,3.2L25.1,17.4z"/>
	<path d="M27.2,24.6l-1.7-5.9l-8.4,7h9.2c0.3,0,0.5-0.1,0.7-0.3C27.2,25.1,27.2,24.9,27.2,24.6z"/>
	<path d="M5.4,19.6l-2.7-0.5l-1.6,5.5c-0.1,0.3,0,0.5,0.1,0.8c0.2,0.2,0.4,0.3,0.7,0.3h3.4V19.6z"/>
	<polygon points="6.7,19.8 6.7,25.7 15.2,25.7 19.5,22.1 	"/>
</g>
</svg>
