<?xml version="1.0" encoding="utf-8"?>
<!-- Generator: Adobe Illustrator 24.2.3, SVG Export Plug-In . SVG Version: 6.00 Build 0)  -->
<svg version="1.1" id="圖層_1" xmlns="http://www.w3.org/2000/svg" xmlns:xlink="http://www.w3.org/1999/xlink" x="0px" y="0px"
	 viewBox="0 0 50 50" style="enable-background:new 0 0 50 50;" xml:space="preserve">
<style type="text/css">
	.st0{fill:#F3D55B;}
	.st1{fill:#E57E25;}
	.st2{fill:#24AE5F;}
	.st3{fill:#BDC3C7;}
	.st4{fill:#3B97D3;}
	.st5{fill:#F5EFCA;}
	.st6{fill:#E64C3C;}
	.st7{fill:#C03A2B;}
</style>
<g id="Page-1">
	<g id="_x30_12---Map-Pin">
		<path id="Shape" class="st0" d="M46.1,45.4l-2.6-7.4l-1.6-4.4L40.6,30l-1.2-3.3l-0.2-0.5c-0.1-0.3-0.4-0.5-0.7-0.5h-4.1
			c-0.4,0.8-0.9,1.7-1.4,2.5c-0.1,0.2-0.2,0.3-0.3,0.5c-0.3,0.5-0.6,0.9-1,1.4c-1.8,2.5-4,4.7-6.5,6.6L25,36.8l-0.1-0.1
			c-1-0.8-2-1.6-3-2.5c-0.9-0.9-1.8-1.8-2.7-2.8c-0.7-0.9-1.4-1.8-2.1-2.8c-0.1-0.1-0.2-0.3-0.3-0.5c-0.5-0.8-1-1.6-1.4-2.5h-4.1
			c-0.3,0-0.6,0.2-0.7,0.5l-0.5,1.3L8,34.1l-1.2,3.3l-1.5,4.1l-1.4,4c0,0.1,0,0.3,0,0.4c0.1,0.3,0.4,0.6,0.7,0.6h40.8
			c0.2,0,0.5-0.1,0.6-0.3S46.2,45.7,46.1,45.4L46.1,45.4z"/>
		<path id="Shape_1_" class="st1" d="M39.4,26.7L31.8,30c0.3-0.4,0.6-0.9,1-1.4c0.1-0.1,0.2-0.3,0.3-0.5c0.5-0.8,0.9-1.6,1.4-2.5
			h4.1c0.3,0,0.6,0.2,0.7,0.5L39.4,26.7z"/>
		<path id="Shape_2_" class="st2" d="M21.9,34.3l-6.8,3L8,34.1l2.3-6.6l9,3.9C20.1,32.4,21,33.4,21.9,34.3L21.9,34.3z"/>
		<path id="Shape_3_" class="st3" d="M45.4,46.4h-4.5l-19.3-8.3l3.2-1.4l0.1,0.1l0.3-0.2l7.3-3.2l2,0.8l3,1.3l5.9,2.5l2.6,7.4
			c0.1,0.2,0,0.5-0.1,0.7C45.9,46.3,45.7,46.4,45.4,46.4L45.4,46.4z"/>
		<path id="Shape_4_" class="st2" d="M10.8,39.1l-5.5,2.4l1.5-4.1L10.8,39.1z"/>
		<path id="Shape_5_" class="st4" d="M32.2,46.4H4.6c-0.4,0-0.7-0.2-0.7-0.6L17.3,40L32.2,46.4z"/>
		<path id="Shape_6_" class="st1" d="M41.9,33.6L37,31.5l3.6-1.5L41.9,33.6z"/>
		<circle id="Oval" class="st5" cx="25" cy="15.3" r="8.1"/>
		<path id="Shape_7_" class="st6" d="M35.8,10.5c-2.3-5.1-7.8-7.9-13.3-6.7s-9.4,6-9.3,11.6c0,4.5,1.3,8.9,3.8,12.7
			c0.1,0.2,0.2,0.3,0.3,0.5c2.1,3.2,4.7,6,7.8,8.2c3.1-2.2,5.7-5,7.8-8.2c0.1-0.1,0.2-0.3,0.3-0.5c2.4-3.8,3.7-8.2,3.8-12.7
			C36.8,13.8,36.5,12.1,35.8,10.5z M25,23.5c-4.5,0-8.1-3.6-8.1-8.1s3.6-8.1,8.1-8.1s8.1,3.6,8.1,8.1c0,2.2-0.9,4.2-2.4,5.8
			C29.2,22.6,27.2,23.5,25,23.5L25,23.5z"/>
		<path id="Shape_8_" class="st7" d="M25,24.2c-4.9,0-8.9-4-8.9-8.9s4-8.9,8.9-8.9s8.9,4,8.9,8.9c0,2.4-0.9,4.6-2.6,6.3
			S27.3,24.2,25,24.2L25,24.2z M25,7.9c-4.1,0-7.4,3.3-7.4,7.4s3.3,7.4,7.4,7.4s7.4-3.3,7.4-7.4c0-2-0.8-3.8-2.2-5.2
			C28.8,8.7,27,7.9,25,7.9z"/>
	</g>
</g>
</svg>
